<mxfile host="app.diagrams.net" modified="2024-04-23T02:41:13.038Z" agent="Mozilla/5.0 (Windows NT 10.0; Win64; x64) AppleWebKit/537.36 (KHTML, like Gecko) Chrome/124.0.0.0 Safari/537.36" version="24.2.2" etag="AgFkVegjOXrBoaEQp8pR" type="github">
  <diagram name="第 1 页" id="ZVKI7sJJgoCKXjIFE0th">
    <mxGraphModel>
      <root>
        <mxCell id="0" />
        <mxCell id="1" parent="0" />
      </root>
    </mxGraphModel>
  </diagram>
</mxfile>
